<svg width="938" height="1118" viewBox="0 0 938 1118" fill="none" xmlns="http://www.w3.org/2000/svg">
<path d="M496.764 25.769C520.757 59.8775 545.483 92.9276 569.593 126.867C666.784 263.681 759.422 405.268 846.191 555.602C869.864 596.617 891.285 638.825 911.321 682.931C915.092 691.233 913.907 691.964 907.588 685.748C870.976 649.737 834.788 613.194 797.459 579.148C649.981 444.642 498.064 330.151 341.839 237.269C305.3 215.546 267.392 200.405 231.118 177.775C221.746 171.928 246.211 199.629 254.104 209.995C295.922 264.914 338.576 318.304 380.698 372.676C467.067 484.162 547.523 606.476 626.499 728.882C644.626 756.977 672.386 792.46 684.818 826.785C686.857 832.414 682.117 828.526 680.177 827.093C652.543 806.687 625.399 782.687 598.074 761.002C420.269 619.9 241.346 495.598 57.5952 389.792C55.6901 388.695 20.4852 364.549 25.3472 375.742C35.1629 398.34 53.1434 417.882 66.0918 436.371C113.464 504.013 158.249 575.576 202.64 647.154C271.352 757.95 335.607 873.167 401.716 986.832C422.935 1023.31 445.143 1058.76 469.067 1091.55" stroke="#F4F4F4" stroke-width="50" stroke-linecap="round"/>
</svg>
