<svg width="35" height="39" viewBox="0 0 35 39" fill="none" xmlns="http://www.w3.org/2000/svg">
<path d="M31.8412 30.2853L3.11914 36.5005V15.2961L10.9524 22.9343L16.5826 7.98422L22.4168 20.0488L30.4949 6.15625L31.8412 30.2853Z" stroke="#08231E" stroke-width="4" stroke-linejoin="round"/>
<path d="M2.51053 11.4043C2.27408 11.7039 2.11499 12.2291 2.02795 12.5837C1.97819 12.7864 1.99255 13.0194 2.09291 13.2074C2.266 13.5317 2.42261 13.6539 2.86319 13.7026C3.18256 13.7379 3.76901 13.7975 4.04182 13.6157C4.30526 13.4401 4.4151 12.7447 4.26455 12.493C4.10109 12.2196 3.80873 11.7272 3.47107 11.5744C3.26089 11.4793 2.91398 11.5404 2.67758 11.5404" stroke="#08231E" stroke-width="4" stroke-linecap="round"/>
<path d="M16.5422 4.73429C16.5155 4.56001 15.9481 4.70413 15.8369 4.74941C15.3115 4.96343 15.0257 5.55707 14.8764 5.99307C14.5703 6.88653 15.8825 7.20042 16.7881 7.1082C17.2196 7.06426 17.6518 6.81385 17.9157 6.5374C18.0497 6.39707 17.9621 6.02108 17.9621 5.86832C17.9621 5.49896 17.8926 5.45885 17.4981 5.30887C17.2317 5.20759 17.0443 5.04087 16.7928 4.93842" stroke="#08231E" stroke-width="4" stroke-linecap="round"/>
<path d="M30.6183 2.5C30.3523 2.5 30.0862 2.5 29.8202 2.5C29.4018 2.5 29.2405 3.11042 29.1984 3.38455C29.0683 4.23238 29.1098 4.95961 30.3399 5.01377C30.9602 5.04109 31.494 5.03181 31.9083 4.60552C32.2458 4.25826 32.216 3.96378 32.2053 3.53575C32.1937 3.07259 32.0288 2.88884 31.486 2.77595C30.9302 2.66033 30.2746 2.56804 29.6995 2.56804" stroke="#08231E" stroke-width="4" stroke-linecap="round"/>
</svg>
