<svg width="129" height="20" viewBox="0 0 129 20" fill="none" xmlns="http://www.w3.org/2000/svg">
<path d="M10.0789 0.779999H0.718938V19.5H5.39894V12.142H5.65894L11.4829 19.5H16.7869V19.11L11.0279 12.22C14.0959 12.09 16.5269 10.192 16.5269 6.526C16.5269 2.691 13.6799 0.779999 10.0789 0.779999ZM5.39894 8.71V4.602H9.32494C10.8719 4.602 11.8989 5.265 11.8989 6.656C11.8989 8.047 10.8719 8.71 9.32494 8.71H5.39894ZM18.8032 10.14C18.8032 16.172 22.4432 19.864 28.7612 19.864C35.0792 19.864 38.7192 16.172 38.7192 10.14C38.7192 4.108 35.0792 0.415999 28.7612 0.415999C22.4432 0.415999 18.8032 4.108 18.8032 10.14ZM23.6652 10.14C23.6652 6.5 25.4592 4.368 28.7612 4.368C32.0632 4.368 33.8572 6.5 33.8572 10.14C33.8572 13.78 32.0632 15.912 28.7612 15.912C25.4592 15.912 23.6652 13.78 23.6652 10.14ZM39.1768 0.779999V1.17L46.1708 12.844V19.5H50.9548V12.844L57.9488 1.17V0.779999H52.7748L48.7188 8.099H48.5108L44.4548 0.779999H39.1768ZM63.4988 0.779999L57.3108 19.11V19.5H62.0168L63.2128 15.548H69.7128L70.9088 19.5H75.7188V19.11L69.5308 0.779999H63.4988ZM64.4088 11.622L66.3588 5.161H66.5668L68.5168 11.622H64.4088ZM78.6641 0.779999V19.5H92.1321V15.444H83.4481V0.779999H78.6641ZM91.3631 0.779999V4.784H97.4471V19.5H102.231V4.784H108.315V0.779999H91.3631ZM110.14 0.779999V1.17L117.134 12.844V19.5H121.918V12.844L128.912 1.17V0.779999H123.738L119.682 8.099H119.474L115.418 0.779999H110.14Z" fill="#08231E"/>
</svg>
