<svg width="631" height="494" viewBox="0 0 631 494" fill="none" xmlns="http://www.w3.org/2000/svg">
<path d="M407.697 180.133C375.895 166.022 311.583 -12.4842 289.674 9.38802C267.766 31.2603 235.256 180.133 214.761 180.133C194.267 180.133 -2.20279 127.216 8.39807 145.561C18.9989 163.905 173.771 282.438 173.065 309.955C172.358 337.472 106.633 484.228 127.128 484.228C147.623 484.228 284.02 357.228 311.583 358.639C339.145 360.05 508.759 500.456 522.186 484.228C535.614 468 447.274 329.711 455.754 309.955C464.235 290.2 646.57 145.561 620.421 145.561C594.272 145.561 439.5 194.244 407.697 180.133Z" stroke="#82FF8E" stroke-width="15" stroke-linecap="round"/>
</svg>
